#!OML:ASF F:\VICON\USERDATA\INSTALL\rory3\rory3.ASF
:FULLY-SPECIFIED
:DEGREES
45
root 0.8808466383187351 17.99362015618778 28.267931321477334 -3.0951767819334997 0.9853472010999111 0.8270739152900637
lfemur 10.610302993829366 -4.029331485520343 -24.247176939208977
ltibia 24.198597339857365
lfoot -2.7752655435046973 -6.489241915491677
ltoes -13.431424990288821
rfemur -23.600686217494463 -0.9055423246193408 20.06293576555642
rtibia 37.28493973571245
rfoot -10.864644885531758 -7.238827984740206
rtoes 7.891656344625436
lowerback nan -1.3826174374361282 -2.5527859706290936
upperback -0.10187052469639604 -2.1416278576516095 1.8662563431254482
thorax -5.899846628535282 -0.9687485301349906 4.136127678286131
lowerneck -16.665001674396038 -3.0506365445939294 -2.26327703179028
upperneck 22.364216286895083 -3.85491625167952 1.09957283882599
head 10.013888306012149 -1.8644407737061643 0.24502959848564346
lclavicle -2.55320084414392e-15 -2.750282404114469e-15
lhumerus -25.081737662014046 -2.765905260038377 81.18055638675975
lradius 28.73656344874583
lwrist 8.080517143339979
lhand -29.528435080999365 18.69701364698444
lfingers nan
lthumb -2.595851438070537 49.076920946328364
rclavicle -2.5310608966026163e-15 -2.7236101586413883e-15
rhumerus -38.105851599375015 -23.931647737693087 -77.37997935172807
rradius 29.027654471022664
rwrist 0.6245098327547307
rhand -17.321018935724798 nan
rfingers nan
rthumb 9.028191601881076 -6.168348931027875
46
root 0.9298835002684867 18.002968461585944 29.77762291459824 -3.2034685548984063 0.9476267361968089 0.9205954887530554
lfemur 10.587832819105289 -4.078008891780536 -24.08308398352136
ltibia 26.890331814393058
lfoot -2.708639037700639 -6.152002746307867
ltoes -11.103332886263372
rfemur -22.423757988527246 -0.8406354837810315 20.524920509042367
rtibia 35.10443398301676
rfoot -11.674412778173348 -8.366428391564758
rtoes 8.004928314943054
lowerback nan -1.54944477528036 -2.664638815316165
upperback -0.09339942401285234 -2.3604832535318154 1.8967666273874753
thorax -5.810886764539104 -1.046434298455959 4.257685779075191
lowerneck -16.66600641144974 -3.04219924661877 -2.252370340479799
upperneck 22.386299822255886 -3.831607395122407 1.0313834387414802
head 10.018435003717663 -1.86395803950354 0.22679058575633826
lclavicle -2.557945068627025e-15 -2.752708121156573e-15
lhumerus -25.497173244593434 -2.8578419009042233 81.51143723274359
lradius 26.74923335065156
lwrist 8.578266113182975
lhand -29.554105921763515 18.83061117983632
lfingers nan
lthumb -2.6321747091426055 49.137899977547534
rclavicle -2.5337508850087028e-15 -2.7241939868393742e-15
rhumerus -38.52394755274632 -24.93825054002802 -76.30693567671811
rradius 29.42862762792103
rwrist 2.895199255092848
rhand -17.40940835005918 nan
rfingers nan
rthumb 9.022510281034538 -5.70285145726422
47
root 0.9723748734995766 17.995945391904648 31.070605704600794 -3.3922616197295032 0.7961592703062448 0.583226090520875
lfemur 9.899130241358135 -3.9627060013022444 -23.44369165825485
ltibia 30.624411646397938
lfoot -3.6529389111715584 -5.591658042820667
ltoes -9.102399412404555
rfemur -22.064720123172634 -0.7602782844190372 21.089016936662045
rtibia 34.04954098663684
rfoot -12.908378352573406 -9.68446087443883
rtoes 7.771750856943179
lowerback nan -1.6151025904303271 -2.407769689348502
upperback -0.11238050455349423 -2.48272307676352 1.9366063644144718
thorax -5.79241340599749 -1.1051121874957026 4.232477989745747
lowerneck -16.649867532512356 -3.0314358767923455 -2.2202771130287555
upperneck 22.328872938895255 -3.8060014705171197 0.9849756069823788
head 9.966533626644797 -1.8649988538194717 0.22023966394944364
lclavicle -2.5599836902754438e-15 -2.7537219537039253e-15
lhumerus -25.975529396455933 -2.724153742159905 81.82007428647242
lradius 24.72308297719872
lwrist 9.193793599923278
lhand -29.637852539816652 18.73572837912141
lfingers nan
lthumb -2.7347629043537736 49.009688226099016
rclavicle -2.534012636915614e-15 -2.723659815497372e-15
rhumerus -38.660067654266655 -25.914309483242423 -75.28882660230751
rradius 29.686209675526356
rwrist 5.056160483125277
rhand -17.54536322140734 nan
rfingers nan
rthumb 8.878441431679452 -6.072175269874369
48
root 1.0034370047358776 17.979132457227397 32.61935631970529 -3.489103687431029 0.5475924772157736 -0.3949702597380629
lfemur 8.441396816752937 -3.6212379057851996 -21.96720254679547
ltibia 35.2140796849928
lfoot -3.9178981714635883 -4.059725173063786
ltoes -8.72497729491957
rfemur -21.313185219164634 -0.24194224928087316 22.6123939753791
rtibia 33.80578540135946
rfoot -14.689856450691577 -11.022053841900036
rtoes 7.121839135408567
lowerback nan -1.6018385165365763 -1.6383755735637695
upperback -0.11254687871625993 -2.306843498239794 2.1129640246652373
thorax -5.839071064492151 -1.0415383374468614 4.070280156671986
lowerneck -16.651058801271947 -3.027954477618852 -2.1550668058220963
upperneck 22.25120868351675 -3.8099781168616302 0.9200059085409129
head 9.900047120758744 -1.8766432771242934 0.19740402704725818
lclavicle -2.563077191292639e-15 -2.7558786349360403e-15
lhumerus -26.59031287868916 -2.2495169756773783 82.11177250700241
lradius 22.9324928690388
lwrist 9.663510933313457
lhand -29.676361493282787 18.71849443926546
lfingers nan
lthumb -2.780556594080694 48.884325898631964
rclavicle -2.532482556178743e-15 -2.723208668264043e-15
rhumerus -38.39526734785684 -26.66246237767036 -74.42725304116328
rradius 29.80137119963608
rwrist 6.193846677897344
rhand -17.590843448994075 nan
rfingers nan
rthumb 8.879656676707723 -6.603017523296054
